<svg width="32" height="32" viewBox="0 0 32 32" fill="none" xmlns="http://www.w3.org/2000/svg">
<path d="M6.66675 26.6666V24H25.3334V26.6666H6.66675ZM6.66675 22L4.96675 11.3C4.92231 11.3 4.87208 11.3057 4.81608 11.3173C4.76008 11.3289 4.71031 11.3342 4.66675 11.3333C4.1112 11.3333 3.6392 11.1386 3.25075 10.7493C2.86231 10.36 2.66764 9.88796 2.66675 9.3333C2.66586 8.77863 2.86053 8.30663 3.25075 7.9173C3.64097 7.52796 4.11297 7.3333 4.66675 7.3333C5.22053 7.3333 5.69297 7.52796 6.08408 7.9173C6.4752 8.30663 6.66942 8.77863 6.66675 9.3333C6.66675 9.48885 6.64986 9.6333 6.61608 9.76663C6.58231 9.89996 6.54364 10.0222 6.50008 10.1333L10.6668 12L14.8334 6.29996C14.589 6.12218 14.389 5.88885 14.2334 5.59996C14.0779 5.31107 14.0001 4.99996 14.0001 4.66663C14.0001 4.11107 14.1947 3.63863 14.5841 3.2493C14.9734 2.85996 15.4454 2.66574 16.0001 2.66663C16.5547 2.66752 17.0272 2.86218 17.4174 3.25063C17.8076 3.63907 18.0019 4.11107 18.0001 4.66663C18.0001 4.99996 17.9223 5.31107 17.7667 5.59996C17.6112 5.88885 17.4112 6.12218 17.1667 6.29996L21.3334 12L25.5001 10.1333C25.4556 10.0222 25.4165 9.89996 25.3827 9.76663C25.349 9.6333 25.3325 9.48885 25.3334 9.3333C25.3334 8.77774 25.5281 8.30529 25.9174 7.91596C26.3067 7.52663 26.7787 7.33241 27.3334 7.3333C27.8881 7.33418 28.3605 7.52885 28.7507 7.9173C29.141 8.30574 29.3352 8.77774 29.3334 9.3333C29.3316 9.88885 29.1374 10.3613 28.7507 10.7506C28.3641 11.14 27.8916 11.3342 27.3334 11.3333C27.289 11.3333 27.2392 11.328 27.1841 11.3173C27.129 11.3066 27.0787 11.3009 27.0334 11.3L25.3334 22H6.66675ZM8.93342 19.3333H23.0667L23.9334 13.7666L20.4334 15.3L16.0001 9.19996L11.5668 15.3L8.06675 13.7666L8.93342 19.3333Z" fill="white"/>
</svg>
