<svg width="32" height="32" viewBox="0 0 32 32" fill="none" xmlns="http://www.w3.org/2000/svg">
<path d="M10.6667 6.66663C10.6667 7.72749 10.2452 8.74491 9.4951 9.49505C8.74495 10.2452 7.72754 10.6666 6.66667 10.6666C5.60581 10.6666 4.58839 10.2452 3.83824 9.49505C3.0881 8.74491 2.66667 7.72749 2.66667 6.66663C2.66667 5.60576 3.0881 4.58834 3.83824 3.8382C4.58839 3.08805 5.60581 2.66663 6.66667 2.66663C7.72754 2.66663 8.74495 3.08805 9.4951 3.8382C10.2452 4.58834 10.6667 5.60576 10.6667 6.66663ZM29.3333 6.66663C29.3333 7.72749 28.9119 8.74491 28.1618 9.49505C27.4116 10.2452 26.3942 10.6666 25.3333 10.6666C24.2725 10.6666 23.2551 10.2452 22.5049 9.49505C21.7548 8.74491 21.3333 7.72749 21.3333 6.66663C21.3333 5.60576 21.7548 4.58834 22.5049 3.8382C23.2551 3.08805 24.2725 2.66663 25.3333 2.66663C26.3942 2.66663 27.4116 3.08805 28.1618 3.8382C28.9119 4.58834 29.3333 5.60576 29.3333 6.66663ZM10.6667 25.3333C10.6667 26.3942 10.2452 27.4116 9.4951 28.1617C8.74495 28.9119 7.72754 29.3333 6.66667 29.3333C5.60581 29.3333 4.58839 28.9119 3.83824 28.1617C3.0881 27.4116 2.66667 26.3942 2.66667 25.3333C2.66667 24.2724 3.0881 23.255 3.83824 22.5049C4.58839 21.7547 5.60581 21.3333 6.66667 21.3333C7.72754 21.3333 8.74495 21.7547 9.4951 22.5049C10.2452 23.255 10.6667 24.2724 10.6667 25.3333ZM29.3333 25.3333C29.3333 26.3942 28.9119 27.4116 28.1618 28.1617C27.4116 28.9119 26.3942 29.3333 25.3333 29.3333C24.2725 29.3333 23.2551 28.9119 22.5049 28.1617C21.7548 27.4116 21.3333 26.3942 21.3333 25.3333C21.3333 24.2724 21.7548 23.255 22.5049 22.5049C23.2551 21.7547 24.2725 21.3333 25.3333 21.3333C26.3942 21.3333 27.4116 21.7547 28.1618 22.5049C28.9119 23.255 29.3333 24.2724 29.3333 25.3333Z" stroke="#96BF48" stroke-width="1.5"/>
<path d="M10.6667 25.3333H21.3333M10.6667 6.66663H21.3333M25.3333 21.3333V10.6666M6.66667 21.3333V10.6666" stroke="#96BF48" stroke-width="1.5" stroke-linecap="round"/>
</svg>
