<svg width="80" height="80" viewBox="0 0 80 80" fill="none" xmlns="http://www.w3.org/2000/svg">
<path d="M64.6987 15.8237C64.4225 15.7975 58.5238 15.36 58.5238 15.36C58.5238 15.36 54.4238 11.2712 53.975 10.8212C53.525 10.3687 52.6462 10.5037 52.3037 10.6075C52.255 10.6212 51.41 10.885 50.0112 11.3162C48.6412 7.35749 46.2275 3.71999 41.9788 3.71999C41.8613 3.71999 41.74 3.72499 41.6175 3.73249C40.41 2.12874 38.9125 1.42749 37.6187 1.42749C27.72 1.42749 22.99 13.8662 21.5075 20.1875C17.66 21.3825 14.925 22.235 14.58 22.3475C12.4287 23.025 12.3625 23.0925 12.0837 25.125C11.8687 26.6637 6.25 70.33 6.25 70.33L50.0275 78.5725L73.75 73.4137C73.75 73.4137 65.4238 16.8375 65.3713 16.4487C65.3188 16.0612 64.9787 15.8462 64.6987 15.8237ZM41.2925 13.6C41.2925 13.7487 41.29 13.8887 41.29 14.03C38.88 14.7812 36.265 15.5937 33.6387 16.4125C35.1125 10.7 37.8725 7.93749 40.2887 6.89624C40.895 8.42874 41.2925 10.6312 41.2925 13.6ZM37.345 4.09749C37.7775 4.09749 38.205 4.24249 38.6175 4.52874C35.4437 6.02749 32.045 9.80874 30.6075 17.355C28.5088 18.0075 26.4588 18.6475 24.56 19.2375C26.2425 13.4787 30.235 4.09749 37.345 4.09749ZM39.0513 37.7375C39.0513 37.7375 36.4888 36.3637 33.35 36.3637C28.7425 36.3637 28.51 39.2687 28.51 39.9987C28.51 43.9925 38.8687 45.5237 38.8687 54.8775C38.8687 62.2375 34.2262 66.975 27.9613 66.975C20.4462 66.975 16.6012 62.2737 16.6012 62.2737L18.6125 55.5925C18.6125 55.5925 22.5625 59.0037 25.9 59.0037C28.075 59.0037 28.9613 57.2787 28.9613 56.02C28.9613 50.81 20.4625 50.5775 20.4625 42.0162C20.4625 34.815 25.6075 27.84 35.9975 27.84C39.9963 27.84 41.9762 28.9937 41.9762 28.9937L39.0513 37.7375ZM43.8875 13.2225C43.8875 12.9587 43.89 12.7012 43.89 12.4175C43.89 9.95999 43.5487 7.97874 43.0037 6.40874C45.1937 6.68249 46.6525 9.18749 47.5913 12.0687C46.4925 12.4137 45.2425 12.8012 43.8875 13.2225Z" fill="#95C675"/>
<path d="M64.6987 15.8237C64.4225 15.7975 58.5238 15.36 58.5238 15.36C58.5238 15.36 54.4238 11.2712 53.975 10.8212C53.525 10.3687 52.6462 10.5037 52.3037 10.6075C52.255 10.6212 51.41 10.885 50.0112 11.3162C48.6412 7.35749 46.2275 3.71999 41.9788 3.71999C41.8613 3.71999 41.74 3.72499 41.6175 3.73249C40.41 2.12874 38.9125 1.42749 37.6187 1.42749C27.72 1.42749 25.2775 13.8662 23.795 20.1875C19.9475 21.3825 16.995 27.9612 16.6463 28.0712C14.4975 28.7487 14.4313 28.8162 14.1512 30.85C13.935 32.3875 6.25 70.33 6.25 70.33L50.0275 78.5725L73.75 73.4137C73.75 73.4137 65.4238 16.8375 65.3713 16.4487C65.3188 16.0612 64.9787 15.8462 64.6987 15.8237ZM41.2925 13.6C41.2925 13.7487 41.29 13.8887 41.29 14.03C38.88 14.7812 36.265 15.5937 33.6387 16.4125C35.1125 10.7 37.8725 7.93749 40.2887 6.89624C40.895 8.42874 41.2925 10.6312 41.2925 13.6ZM37.345 4.09749C37.7775 4.09749 38.205 4.24249 38.6175 4.52874C35.4437 6.02749 32.045 9.80874 30.6075 17.355C28.5088 18.0075 26.4588 18.6475 24.56 19.2375C26.2425 13.4787 30.235 4.09749 37.345 4.09749ZM39.0513 37.7375C39.0513 37.7375 36.4888 36.3637 33.35 36.3637C28.7425 36.3637 28.51 39.2687 28.51 39.9987C28.51 43.9925 38.8687 45.5237 38.8687 54.8775C38.8687 62.2375 34.2262 66.975 27.9613 66.975C20.4462 66.975 16.6012 62.2737 16.6012 62.2737L18.6125 55.5925C18.6125 55.5925 22.5625 59.0037 25.9 59.0037C28.075 59.0037 28.9613 57.2787 28.9613 56.02C28.9613 50.81 20.4625 50.5775 20.4625 42.0162C20.4625 34.815 25.6075 27.84 35.9975 27.84C39.9963 27.84 41.9762 28.9937 41.9762 28.9937L39.0513 37.7375ZM43.8875 13.2225C43.8875 12.9587 43.89 12.7012 43.89 12.4175C43.89 9.95999 43.5487 7.97874 43.0037 6.40874C45.1937 6.68249 46.6525 9.18749 47.5913 12.0687C46.4925 12.4137 45.2425 12.8012 43.8875 13.2225Z" fill="#79B259"/>
<path d="M50.0274 78.5712L73.7499 73.4137C73.7499 73.4137 65.4237 16.8374 65.3712 16.4487C65.3187 16.0599 64.9799 15.8462 64.6987 15.8237C64.4224 15.7974 58.5237 15.3599 58.5237 15.3599C58.5237 15.3599 54.4237 11.2712 53.9749 10.8212C53.7349 10.5787 53.3762 10.5099 53.0374 10.5074C52.1374 12.0324 52.3237 14.9287 52.3237 14.9287L49.5337 78.4774L50.0274 78.5712Z" fill="#55932C"/>
<path d="M41.9787 3.72109C41.8612 3.72109 41.7399 3.72609 41.6174 3.73359C40.4099 2.12984 38.9124 1.42859 37.6187 1.42859C27.7599 1.42859 23.0262 13.7698 21.5249 20.1123L24.5837 19.1636C26.2762 13.4023 30.2649 4.09734 37.3449 4.09734C37.7774 4.09734 38.2049 4.24234 38.6174 4.52859C35.4524 6.02234 32.0624 9.78984 30.6199 17.2948L33.6574 16.3573C35.1349 10.6811 37.8837 7.93359 40.2912 6.89609C40.8962 8.42984 41.2949 10.6311 41.2949 13.5998C41.2949 13.7348 41.2949 13.8636 41.2924 13.9923L43.8899 13.1886C43.8899 12.9386 43.8924 12.6886 43.8924 12.4173C43.8924 9.95984 43.5512 7.97859 43.0062 6.40859C45.1887 6.68109 46.6462 9.17484 47.5837 12.0436L50.0062 11.2923C48.6324 7.34484 46.2199 3.72109 41.9787 3.72109Z" fill="#4A7A2B"/>
<path d="M59.5137 15.4349C58.9212 15.3887 58.5225 15.3599 58.5225 15.3599C58.5225 15.3599 54.4225 11.2712 53.9737 10.8212C53.7337 10.5787 53.375 10.5099 53.0362 10.5074C52.1362 12.0324 52.3225 14.9287 52.3225 14.9287L49.5325 78.4774L50.0275 78.5712L62.65 75.8262L59.5137 15.4349Z" fill="#4C822A"/>
</svg>
