<svg width="32" height="32" viewBox="0 0 32 32" fill="none" xmlns="http://www.w3.org/2000/svg">
<path d="M10.6667 6.66663C10.6667 7.72749 10.2453 8.74491 9.49517 9.49505C8.74503 10.2452 7.72761 10.6666 6.66675 10.6666C5.60588 10.6666 4.58847 10.2452 3.83832 9.49505C3.08818 8.74491 2.66675 7.72749 2.66675 6.66663C2.66675 5.60576 3.08818 4.58834 3.83832 3.8382C4.58847 3.08805 5.60588 2.66663 6.66675 2.66663C7.72761 2.66663 8.74503 3.08805 9.49517 3.8382C10.2453 4.58834 10.6667 5.60576 10.6667 6.66663ZM29.3334 6.66663C29.3334 7.72749 28.912 8.74491 28.1618 9.49505C27.4117 10.2452 26.3943 10.6666 25.3334 10.6666C24.2725 10.6666 23.2551 10.2452 22.505 9.49505C21.7548 8.74491 21.3334 7.72749 21.3334 6.66663C21.3334 5.60576 21.7548 4.58834 22.505 3.8382C23.2551 3.08805 24.2725 2.66663 25.3334 2.66663C26.3943 2.66663 27.4117 3.08805 28.1618 3.8382C28.912 4.58834 29.3334 5.60576 29.3334 6.66663ZM10.6667 25.3333C10.6667 26.3942 10.2453 27.4116 9.49517 28.1617C8.74503 28.9119 7.72761 29.3333 6.66675 29.3333C5.60588 29.3333 4.58847 28.9119 3.83832 28.1617C3.08818 27.4116 2.66675 26.3942 2.66675 25.3333C2.66675 24.2724 3.08818 23.255 3.83832 22.5049C4.58847 21.7547 5.60588 21.3333 6.66675 21.3333C7.72761 21.3333 8.74503 21.7547 9.49517 22.5049C10.2453 23.255 10.6667 24.2724 10.6667 25.3333ZM29.3334 25.3333C29.3334 26.3942 28.912 27.4116 28.1618 28.1617C27.4117 28.9119 26.3943 29.3333 25.3334 29.3333C24.2725 29.3333 23.2551 28.9119 22.505 28.1617C21.7548 27.4116 21.3334 26.3942 21.3334 25.3333C21.3334 24.2724 21.7548 23.255 22.505 22.5049C23.2551 21.7547 24.2725 21.3333 25.3334 21.3333C26.3943 21.3333 27.4117 21.7547 28.1618 22.5049C28.912 23.255 29.3334 24.2724 29.3334 25.3333Z" stroke="white" stroke-width="1.5"/>
<path d="M10.6667 25.3333H21.3334M10.6667 6.66663H21.3334M25.3334 21.3333V10.6666M6.66675 21.3333V10.6666" stroke="white" stroke-width="1.5" stroke-linecap="round"/>
</svg>
