<svg width="32" height="32" viewBox="0 0 32 32" fill="none" xmlns="http://www.w3.org/2000/svg">
<path d="M6.66663 26.6666V24H25.3333V26.6666H6.66663ZM6.66663 22L4.96663 11.3C4.92218 11.3 4.87196 11.3057 4.81596 11.3173C4.75996 11.3289 4.71018 11.3342 4.66663 11.3333C4.11107 11.3333 3.63907 11.1386 3.25063 10.7493C2.86218 10.36 2.66752 9.88796 2.66663 9.3333C2.66574 8.77863 2.86041 8.30663 3.25063 7.9173C3.64085 7.52796 4.11285 7.3333 4.66663 7.3333C5.22041 7.3333 5.69285 7.52796 6.08396 7.9173C6.47507 8.30663 6.6693 8.77863 6.66663 9.3333C6.66663 9.48885 6.64974 9.6333 6.61596 9.76663C6.58218 9.89996 6.54352 10.0222 6.49996 10.1333L10.6666 12L14.8333 6.29996C14.5889 6.12218 14.3889 5.88885 14.2333 5.59996C14.0777 5.31107 14 4.99996 14 4.66663C14 4.11107 14.1946 3.63863 14.584 3.2493C14.9733 2.85996 15.4453 2.66574 16 2.66663C16.5546 2.66752 17.0271 2.86218 17.4173 3.25063C17.8075 3.63907 18.0017 4.11107 18 4.66663C18 4.99996 17.9222 5.31107 17.7666 5.59996C17.6111 5.88885 17.4111 6.12218 17.1666 6.29996L21.3333 12L25.5 10.1333C25.4555 10.0222 25.4164 9.89996 25.3826 9.76663C25.3489 9.6333 25.3324 9.48885 25.3333 9.3333C25.3333 8.77774 25.528 8.30529 25.9173 7.91596C26.3066 7.52663 26.7786 7.33241 27.3333 7.3333C27.888 7.33418 28.3604 7.52885 28.7506 7.9173C29.1408 8.30574 29.3351 8.77774 29.3333 9.3333C29.3315 9.88885 29.1373 10.3613 28.7506 10.7506C28.364 11.14 27.8915 11.3342 27.3333 11.3333C27.2888 11.3333 27.2391 11.328 27.184 11.3173C27.1288 11.3066 27.0786 11.3009 27.0333 11.3L25.3333 22H6.66663ZM8.9333 19.3333H23.0666L23.9333 13.7666L20.4333 15.3L16 9.19996L11.5666 15.3L8.06663 13.7666L8.9333 19.3333Z" fill="#96BF48"/>
</svg>
