<svg width="80" height="80" viewBox="0 0 80 80" fill="none" xmlns="http://www.w3.org/2000/svg">
<path d="M64.6987 15.8237C64.4225 15.7975 58.5238 15.36 58.5238 15.36C58.5238 15.36 54.4238 11.2712 53.975 10.8212C53.525 10.3687 52.6462 10.5037 52.3037 10.6075C52.255 10.6212 51.41 10.885 50.0112 11.3162C48.6412 7.35749 46.2275 3.71999 41.9788 3.71999C41.8613 3.71999 41.74 3.72499 41.6175 3.73249C40.41 2.12874 38.9125 1.42749 37.6187 1.42749C27.72 1.42749 22.99 13.8662 21.5075 20.1875C17.66 21.3825 14.925 22.235 14.58 22.3475C12.4287 23.025 12.3625 23.0925 12.0837 25.125C11.8687 26.6637 6.25 70.33 6.25 70.33L50.0275 78.5725L73.75 73.4137C73.75 73.4137 65.4238 16.8375 65.3713 16.4487C65.3188 16.0612 64.9787 15.8462 64.6987 15.8237ZM41.2925 13.6C41.2925 13.7487 41.29 13.8887 41.29 14.03C38.88 14.7812 36.265 15.5937 33.6387 16.4125C35.1125 10.7 37.8725 7.93749 40.2887 6.89624C40.895 8.42874 41.2925 10.6312 41.2925 13.6ZM37.345 4.09749C37.7775 4.09749 38.205 4.24249 38.6175 4.52874C35.4437 6.02749 32.045 9.80874 30.6075 17.355C28.5088 18.0075 26.4588 18.6475 24.56 19.2375C26.2425 13.4787 30.235 4.09749 37.345 4.09749ZM39.0513 37.7375C39.0513 37.7375 36.4888 36.3637 33.35 36.3637C28.7425 36.3637 28.51 39.2687 28.51 39.9987C28.51 43.9925 38.8687 45.5237 38.8687 54.8775C38.8687 62.2375 34.2262 66.975 27.9613 66.975C20.4462 66.975 16.6012 62.2737 16.6012 62.2737L18.6125 55.5925C18.6125 55.5925 22.5625 59.0037 25.9 59.0037C28.075 59.0037 28.9613 57.2787 28.9613 56.02C28.9613 50.81 20.4625 50.5775 20.4625 42.0162C20.4625 34.815 25.6075 27.84 35.9975 27.84C39.9963 27.84 41.9762 28.9937 41.9762 28.9937L39.0513 37.7375ZM43.8875 13.2225C43.8875 12.9587 43.89 12.7012 43.89 12.4175C43.89 9.95999 43.5487 7.97874 43.0037 6.40874C45.1937 6.68249 46.6525 9.18749 47.5913 12.0687C46.4925 12.4137 45.2425 12.8012 43.8875 13.2225Z" fill="#1C1C1C" fill-opacity="0.12"/>
<path d="M64.6987 15.8237C64.4225 15.7975 58.5238 15.36 58.5238 15.36C58.5238 15.36 54.4238 11.2712 53.975 10.8212C53.525 10.3687 52.6462 10.5037 52.3037 10.6075C52.255 10.6212 51.41 10.885 50.0112 11.3162C48.6412 7.35749 46.2275 3.71999 41.9788 3.71999C41.8613 3.71999 41.74 3.72499 41.6175 3.73249C40.41 2.12874 38.9125 1.42749 37.6187 1.42749C27.72 1.42749 25.2775 13.8662 23.795 20.1875C19.9475 21.3825 16.995 27.9612 16.6463 28.0712C14.4975 28.7487 14.4313 28.8162 14.1512 30.85C13.935 32.3875 6.25 70.33 6.25 70.33L50.0275 78.5725L73.75 73.4137C73.75 73.4137 65.4238 16.8375 65.3713 16.4487C65.3188 16.0612 64.9787 15.8462 64.6987 15.8237ZM41.2925 13.6C41.2925 13.7487 41.29 13.8887 41.29 14.03C38.88 14.7812 36.265 15.5937 33.6387 16.4125C35.1125 10.7 37.8725 7.93749 40.2887 6.89624C40.895 8.42874 41.2925 10.6312 41.2925 13.6ZM37.345 4.09749C37.7775 4.09749 38.205 4.24249 38.6175 4.52874C35.4437 6.02749 32.045 9.80874 30.6075 17.355C28.5088 18.0075 26.4588 18.6475 24.56 19.2375C26.2425 13.4787 30.235 4.09749 37.345 4.09749ZM39.0513 37.7375C39.0513 37.7375 36.4888 36.3637 33.35 36.3637C28.7425 36.3637 28.51 39.2687 28.51 39.9987C28.51 43.9925 38.8687 45.5237 38.8687 54.8775C38.8687 62.2375 34.2262 66.975 27.9613 66.975C20.4462 66.975 16.6012 62.2737 16.6012 62.2737L18.6125 55.5925C18.6125 55.5925 22.5625 59.0037 25.9 59.0037C28.075 59.0037 28.9613 57.2787 28.9613 56.02C28.9613 50.81 20.4625 50.5775 20.4625 42.0162C20.4625 34.815 25.6075 27.84 35.9975 27.84C39.9963 27.84 41.9762 28.9937 41.9762 28.9937L39.0513 37.7375ZM43.8875 13.2225C43.8875 12.9587 43.89 12.7012 43.89 12.4175C43.89 9.95999 43.5487 7.97874 43.0037 6.40874C45.1937 6.68249 46.6525 9.18749 47.5913 12.0687C46.4925 12.4137 45.2425 12.8012 43.8875 13.2225Z" fill="#2C2C2C" fill-opacity="0.12"/>
<path d="M50.0274 78.5713L73.7499 73.4138C73.7499 73.4138 65.4237 16.8376 65.3712 16.4488C65.3187 16.0601 64.9799 15.8463 64.6987 15.8238C64.4224 15.7976 58.5237 15.3601 58.5237 15.3601C58.5237 15.3601 54.4237 11.2713 53.9749 10.8213C53.7349 10.5788 53.3762 10.5101 53.0374 10.5076C52.1374 12.0326 52.3237 14.9288 52.3237 14.9288L49.5337 78.4776L50.0274 78.5713Z" fill="#1C1C1C" fill-opacity="0.12"/>
<path d="M41.9788 3.72121C41.8613 3.72121 41.74 3.72621 41.6175 3.73371C40.41 2.12996 38.9125 1.42871 37.6188 1.42871C27.76 1.42871 23.0263 13.77 21.525 20.1125L24.5838 19.1637C26.2763 13.4025 30.265 4.09746 37.345 4.09746C37.7775 4.09746 38.205 4.24246 38.6175 4.52871C35.4525 6.02246 32.0625 9.78996 30.62 17.295L33.6575 16.3575C35.135 10.6812 37.8838 7.93371 40.2913 6.89621C40.8963 8.42996 41.295 10.6312 41.295 13.6C41.295 13.735 41.295 13.8637 41.2925 13.9925L43.89 13.1887C43.89 12.9387 43.8925 12.6887 43.8925 12.4175C43.8925 9.95996 43.5513 7.97871 43.0063 6.40871C45.1888 6.68121 46.6463 9.17496 47.5838 12.0437L50.0063 11.2925C48.6325 7.34496 46.22 3.72121 41.9788 3.72121Z" fill="#2C2C2C" fill-opacity="0.12"/>
<path d="M59.5137 15.4351C58.9212 15.3888 58.5225 15.3601 58.5225 15.3601C58.5225 15.3601 54.4225 11.2713 53.9737 10.8213C53.7337 10.5788 53.375 10.5101 53.0362 10.5076C52.1362 12.0326 52.3225 14.9288 52.3225 14.9288L49.5325 78.4776L50.0275 78.5713L62.65 75.8263L59.5137 15.4351Z" fill="#2C2C2C" fill-opacity="0.12"/>
</svg>
