<svg width="80" height="80" viewBox="0 0 80 80" fill="none" xmlns="http://www.w3.org/2000/svg">
<path d="M42.5312 4.51875L50.9437 23.7062C51.2603 24.4282 51.7648 25.0521 52.4046 25.5127C53.0444 25.9733 53.7961 26.2538 54.5812 26.325L75.075 28.1625C77.3937 28.5 78.3187 31.3438 76.6375 32.9813L61.2 45.95C59.95 47 59.3812 48.65 59.725 50.2438L64.2125 71.25C64.6062 73.5563 62.1875 75.3187 60.1125 74.225L42.225 63.75C41.5504 63.3538 40.7823 63.145 40 63.145C39.2177 63.145 38.4495 63.3538 37.775 63.75L19.8875 74.2188C17.8187 75.3063 15.3937 73.55 15.7875 71.2438L20.275 50.2375C20.6125 48.6437 20.05 46.9938 18.8 45.9438L3.35622 32.9875C1.68122 31.3562 2.60622 28.5063 4.91872 28.1688L25.4125 26.3313C26.1976 26.2601 26.9493 25.9795 27.5891 25.5189C28.2289 25.0583 28.7334 24.4345 29.05 23.7125L37.4625 4.525C38.5062 2.425 41.4937 2.425 42.5312 4.51875Z" fill="#FDD835"/>
<path d="M41.9187 24.8563L40.4937 10.7188C40.4375 9.9313 40.275 8.5813 41.5375 8.5813C42.5375 8.5813 43.0812 10.6625 43.0812 10.6625L47.3562 22.0126C48.9687 26.3313 48.3062 27.8125 46.75 28.6875C44.9625 29.6875 42.325 28.9063 41.9187 24.8563Z" fill="#FFFF8D"/>
<path d="M59.5499 44.6937L71.8124 35.1249C72.4187 34.6187 73.5124 33.8124 72.6374 32.8937C71.9437 32.1687 70.0687 33.2124 70.0687 33.2124L59.3374 37.4062C56.1374 38.5124 54.0124 40.1499 53.8249 42.2124C53.5812 44.9624 56.0499 47.0812 59.5499 44.6937Z" fill="#F4B400"/>
</svg>
