<svg width="80" height="80" viewBox="0 0 80 80" fill="none" xmlns="http://www.w3.org/2000/svg">
<path d="M50.4953 31.2976C50.4953 31.2976 45.1132 46.4681 42.5557 49.1166C39.998 51.7651 35.7775 51.8388 33.129 49.2811C30.4803 46.7234 30.4067 42.5031 32.9643 39.8544C35.522 37.2059 50.4953 31.2976 50.4953 31.2976Z" fill="#2C2C2C" fill-opacity="0.27" stroke="#2C2C2C" stroke-opacity="0.27" stroke-width="2" stroke-linejoin="round"/>
<path d="M64.7487 64.7487C71.0825 58.415 75 49.665 75 40C75 20.67 59.33 5 40 5C20.67 5 5 20.67 5 40C5 49.665 8.91752 58.415 15.2513 64.7487" stroke="#2C2C2C" stroke-opacity="0.27" stroke-width="2" stroke-linecap="round" stroke-linejoin="round"/>
<path d="M40 6.66663V13.3333" stroke="#2C2C2C" stroke-opacity="0.27" stroke-width="2" stroke-linecap="round" stroke-linejoin="round"/>
<path d="M64.7423 18.5702L59.5613 22.7655" stroke="#2C2C2C" stroke-opacity="0.27" stroke-width="2" stroke-linecap="round" stroke-linejoin="round"/>
<path d="M70.8706 45.388L64.3748 43.8883" stroke="#2C2C2C" stroke-opacity="0.27" stroke-width="2" stroke-linecap="round" stroke-linejoin="round"/>
<path d="M9.12891 45.388L15.6247 43.8883" stroke="#2C2C2C" stroke-opacity="0.27" stroke-width="2" stroke-linecap="round" stroke-linejoin="round"/>
<path d="M15.2578 18.5699L20.4388 22.7654" stroke="#2C2C2C" stroke-opacity="0.27" stroke-width="2" stroke-linecap="round" stroke-linejoin="round"/>
</svg>
