<svg width="24" height="18" viewBox="0 0 24 18" fill="none" xmlns="http://www.w3.org/2000/svg">
<path d="M0.847901 8.03385C0.59794 8.28388 0.45752 8.62296 0.45752 8.97651C0.45752 9.33006 0.59794 9.66914 0.847901 9.91918L8.39057 17.4618C8.51356 17.5892 8.66069 17.6908 8.82336 17.7606C8.98603 17.8305 9.16099 17.8673 9.33803 17.8688C9.51507 17.8704 9.69065 17.8366 9.85451 17.7696C10.0184 17.7026 10.1672 17.6036 10.2924 17.4784C10.4176 17.3532 10.5166 17.2043 10.5837 17.0405C10.6507 16.8766 10.6844 16.701 10.6829 16.524C10.6814 16.3469 10.6446 16.172 10.5747 16.0093C10.5048 15.8466 10.4032 15.6995 10.2759 15.5765L5.00923 10.3098L22.6666 10.3098C23.0202 10.3098 23.3593 10.1694 23.6094 9.91932C23.8594 9.66927 23.9999 9.33013 23.9999 8.97651C23.9999 8.62289 23.8594 8.28375 23.6094 8.0337C23.3593 7.78365 23.0202 7.64318 22.6666 7.64318L5.00923 7.64318L10.2759 2.37651C10.5188 2.12504 10.6532 1.78824 10.6501 1.43864C10.6471 1.08905 10.5069 0.754631 10.2597 0.50742C10.0124 0.26021 9.67803 0.119984 9.32844 0.116945C8.97884 0.113907 8.64204 0.248301 8.39057 0.491177L0.847901 8.03385Z" fill="#2C2C2C"/>
</svg>
