<svg width="88" height="57" viewBox="0 0 88 57" fill="none" xmlns="http://www.w3.org/2000/svg">
<path d="M33.1325 29.7734C31.6599 30.7445 29.8959 31.3099 28.0001 31.3099C22.8454 31.3099 18.6667 27.1311 18.6667 21.9765C18.6667 16.8219 22.8454 12.6432 28.0001 12.6432C32.7344 12.6432 36.6453 16.1681 37.2517 20.7366C38.1027 24.9191 38.4352 29.9472 36.768 34.4984C34.9821 39.3743 31.0192 43.3765 23.9244 45.2338C22.6777 45.5602 21.4025 44.814 21.0761 43.5676C20.7498 42.3209 21.4958 41.0457 22.7425 40.7193C28.481 39.2168 31.168 36.219 32.3863 32.8933C32.7493 31.9016 32.9913 30.8542 33.1325 29.7734Z" fill="#96BF48"/>
<path d="M65.1325 29.7734C63.6599 30.7445 61.8959 31.3099 60.0001 31.3099C54.8454 31.3099 50.6667 27.1311 50.6667 21.9765C50.6667 16.8219 54.8454 12.6432 60.0001 12.6432C64.7344 12.6432 68.6453 16.1681 69.2517 20.7366C70.1027 24.9191 70.4352 29.9472 68.768 34.4984C66.9821 39.3743 63.0192 43.3765 55.9244 45.2338C54.6777 45.5602 53.4025 44.814 53.0761 43.5676C52.7498 42.3209 53.4958 41.0457 54.7425 40.7193C60.481 39.2168 63.168 36.219 64.3863 32.8933C64.7493 31.9016 64.9913 30.8542 65.1325 29.7734Z" fill="#96BF48"/>
</svg>
