<svg width="24" height="18" viewBox="0 0 24 18" fill="none" xmlns="http://www.w3.org/2000/svg">
<path d="M23.1521 9.91928C23.4021 9.66924 23.5425 9.33016 23.5425 8.97661C23.5425 8.62306 23.4021 8.28398 23.1521 8.03395L15.6094 0.49128C15.4864 0.363933 15.3393 0.262356 15.1766 0.192478C15.014 0.122599 14.839 0.0858173 14.662 0.0842789C14.4849 0.0827404 14.3094 0.116476 14.1455 0.183518C13.9816 0.250559 13.8328 0.349563 13.7076 0.474753C13.5824 0.599943 13.4834 0.748812 13.4163 0.912674C13.3493 1.07654 13.3156 1.25211 13.3171 1.42915C13.3186 1.60619 13.3554 1.78115 13.4253 1.94382C13.4952 2.10649 13.5968 2.25362 13.7241 2.37661L18.9908 7.64328L1.33343 7.64328C0.979811 7.64328 0.640671 7.78376 0.390621 8.0338C0.140574 8.28385 9.91821e-05 8.62299 9.91821e-05 8.97661C9.91821e-05 9.33023 0.140574 9.66937 0.390621 9.91942C0.640671 10.1695 0.979811 10.3099 1.33343 10.3099L18.9908 10.3099L13.7241 15.5766C13.4812 15.8281 13.3468 16.1649 13.3499 16.5145C13.3529 16.8641 13.4931 17.1985 13.7403 17.4457C13.9876 17.6929 14.322 17.8331 14.6716 17.8362C15.0212 17.8392 15.358 17.7048 15.6094 17.4619L23.1521 9.91928Z" fill="#2C2C2C"/>
</svg>
