<svg width="330" height="36" viewBox="0 0 330 36" fill="none" xmlns="http://www.w3.org/2000/svg">
<path d="M10.4059 28.432C8.70187 28.432 7.15387 28.108 5.76187 27.46C4.36987 26.812 3.19387 25.948 2.23387 24.868C1.27387 23.764 0.589874 22.552 0.181874 21.232L2.77387 20.26C3.39787 22.084 4.36987 23.476 5.68987 24.436C7.00987 25.372 8.58187 25.84 10.4059 25.84C11.5579 25.84 12.5659 25.66 13.4299 25.3C14.3179 24.916 15.0019 24.388 15.4819 23.716C15.9619 23.044 16.2019 22.264 16.2019 21.376C16.2019 20.056 15.8419 19.036 15.1219 18.316C14.4019 17.596 13.3699 17.044 12.0259 16.66L7.20187 15.22C5.30587 14.668 3.84187 13.744 2.80987 12.448C1.80187 11.152 1.29787 9.676 1.29787 8.02C1.29787 6.604 1.64587 5.356 2.34187 4.276C3.03787 3.172 3.98587 2.308 5.18587 1.684C6.40987 1.06 7.78987 0.747999 9.32587 0.747999C10.9339 0.747999 12.3739 1.048 13.6459 1.648C14.9419 2.224 16.0339 2.992 16.9219 3.952C17.8099 4.912 18.4459 5.98 18.8299 7.156L16.3099 8.164C15.7339 6.58 14.8339 5.38 13.6099 4.564C12.4099 3.748 10.9939 3.34 9.36187 3.34C8.32987 3.34 7.41787 3.52 6.62587 3.88C5.85787 4.24 5.25787 4.756 4.82587 5.428C4.39387 6.1 4.17787 6.892 4.17787 7.804C4.17787 8.908 4.52587 9.904 5.22187 10.792C5.91787 11.656 6.98587 12.304 8.42587 12.736L12.6739 13.996C14.7859 14.62 16.3819 15.52 17.4619 16.696C18.5419 17.872 19.0819 19.348 19.0819 21.124C19.0819 22.564 18.7099 23.836 17.9659 24.94C17.2459 26.02 16.2259 26.872 14.9059 27.496C13.6099 28.12 12.1099 28.432 10.4059 28.432ZM24.0673 28V0.747999H26.7673V12.448L26.1553 12.304C26.6353 11.056 27.4153 10.072 28.4953 9.352C29.5993 8.632 30.8713 8.272 32.3113 8.272C33.6793 8.272 34.9033 8.584 35.9833 9.208C37.0873 9.832 37.9513 10.696 38.5753 11.8C39.2233 12.88 39.5473 14.104 39.5473 15.472V28H36.8473V16.516C36.8473 15.34 36.6313 14.344 36.1993 13.528C35.7673 12.712 35.1673 12.088 34.3993 11.656C33.6553 11.2 32.8033 10.972 31.8433 10.972C30.8833 10.972 30.0193 11.2 29.2513 11.656C28.4833 12.088 27.8713 12.724 27.4153 13.564C26.9833 14.38 26.7673 15.364 26.7673 16.516V28H24.0673ZM53.56 28.432C51.736 28.432 50.08 28 48.592 27.136C47.104 26.248 45.916 25.048 45.028 23.536C44.164 22 43.732 20.26 43.732 18.316C43.732 16.396 44.164 14.68 45.028 13.168C45.892 11.656 47.056 10.468 48.52 9.604C50.008 8.716 51.688 8.272 53.56 8.272C55.432 8.272 57.1 8.704 58.564 9.568C60.052 10.432 61.216 11.62 62.056 13.132C62.92 14.644 63.352 16.372 63.352 18.316C63.352 20.284 62.908 22.036 62.02 23.572C61.132 25.084 59.944 26.272 58.456 27.136C56.992 28 55.36 28.432 53.56 28.432ZM53.56 25.732C54.856 25.732 56.02 25.408 57.052 24.76C58.108 24.112 58.936 23.224 59.536 22.096C60.16 20.968 60.472 19.708 60.472 18.316C60.472 16.924 60.16 15.676 59.536 14.572C58.936 13.468 58.108 12.592 57.052 11.944C56.02 11.296 54.856 10.972 53.56 10.972C52.264 10.972 51.088 11.296 50.032 11.944C49 12.592 48.172 13.468 47.548 14.572C46.924 15.676 46.612 16.924 46.612 18.316C46.612 19.708 46.924 20.968 47.548 22.096C48.172 23.224 49 24.112 50.032 24.76C51.088 25.408 52.264 25.732 53.56 25.732ZM67.9339 35.2V8.704H70.6339V13.024L70.2019 12.268C70.9699 11.044 71.9899 10.072 73.2619 9.352C74.5579 8.632 76.0339 8.272 77.6899 8.272C79.5139 8.272 81.1339 8.716 82.5499 9.604C83.9899 10.468 85.1179 11.656 85.9339 13.168C86.7739 14.68 87.1939 16.408 87.1939 18.352C87.1939 20.272 86.7739 22 85.9339 23.536C85.1179 25.048 83.9899 26.248 82.5499 27.136C81.1339 28 79.5139 28.432 77.6899 28.432C76.0339 28.432 74.5339 28.06 73.1899 27.316C71.8699 26.548 70.8739 25.468 70.2019 24.076L70.6339 23.68V35.2H67.9339ZM77.5459 25.732C78.8419 25.732 79.9939 25.408 81.0019 24.76C82.0339 24.112 82.8379 23.236 83.4139 22.132C84.0139 21.004 84.3139 19.744 84.3139 18.352C84.3139 16.936 84.0139 15.676 83.4139 14.572C82.8379 13.468 82.0339 12.592 81.0019 11.944C79.9939 11.296 78.8419 10.972 77.5459 10.972C76.2499 10.972 75.0739 11.296 74.0179 11.944C72.9859 12.592 72.1579 13.48 71.5339 14.608C70.9339 15.712 70.6339 16.96 70.6339 18.352C70.6339 19.744 70.9339 21.004 71.5339 22.132C72.1579 23.236 72.9859 24.112 74.0179 24.76C75.0739 25.408 76.2499 25.732 77.5459 25.732ZM91.7656 28V8.704H94.4656V28H91.7656ZM91.7656 5.14V1.18H94.4656V5.14H91.7656ZM101.792 28V11.404H97.9402V8.704H101.792V6.976C101.792 5.632 102.092 4.504 102.692 3.592C103.292 2.656 104.084 1.948 105.068 1.468C106.052 0.987999 107.108 0.747999 108.236 0.747999C108.476 0.747999 108.752 0.771999 109.064 0.819998C109.376 0.843999 109.628 0.879999 109.82 0.927999V3.376C109.652 3.328 109.424 3.304 109.136 3.304C108.848 3.28 108.644 3.268 108.524 3.268C107.372 3.268 106.412 3.544 105.644 4.096C104.876 4.648 104.492 5.608 104.492 6.976V8.704H109.208V11.404H104.492V28H101.792ZM114.161 35.92C113.777 35.92 113.381 35.884 112.973 35.812C112.589 35.764 112.205 35.668 111.821 35.524V33.004C112.061 33.028 112.361 33.064 112.721 33.112C113.105 33.184 113.489 33.22 113.873 33.22C115.049 33.22 115.949 32.968 116.573 32.464C117.197 31.984 117.809 31.048 118.409 29.656L119.633 26.776L119.561 29.152L111.389 8.704H114.305L121.001 25.588H120.245L126.905 8.704H129.893L121.073 30.448C120.689 31.384 120.197 32.272 119.597 33.112C119.021 33.952 118.289 34.624 117.401 35.128C116.513 35.656 115.433 35.92 114.161 35.92ZM139.219 28V1.18H148.039C150.703 1.18 153.019 1.732 154.987 2.836C156.955 3.916 158.479 5.464 159.559 7.48C160.639 9.472 161.179 11.836 161.179 14.572C161.179 17.284 160.639 19.648 159.559 21.664C158.479 23.68 156.955 25.24 154.987 26.344C153.019 27.448 150.703 28 148.039 28H139.219ZM142.099 25.3H148.039C150.103 25.3 151.891 24.868 153.403 24.004C154.915 23.116 156.079 21.868 156.895 20.26C157.735 18.652 158.155 16.756 158.155 14.572C158.155 12.388 157.735 10.504 156.895 8.92C156.055 7.312 154.879 6.076 153.367 5.212C151.855 4.324 150.079 3.88 148.039 3.88H142.099V25.3ZM174.146 28.432C172.346 28.432 170.714 28 169.25 27.136C167.81 26.248 166.67 25.036 165.83 23.5C164.99 21.964 164.57 20.224 164.57 18.28C164.57 16.336 164.978 14.62 165.794 13.132C166.61 11.62 167.714 10.432 169.106 9.568C170.522 8.704 172.106 8.272 173.858 8.272C175.25 8.272 176.486 8.536 177.566 9.064C178.67 9.568 179.606 10.264 180.374 11.152C181.142 12.016 181.73 13 182.138 14.104C182.546 15.184 182.75 16.3 182.75 17.452C182.75 17.692 182.738 17.968 182.714 18.28C182.69 18.568 182.654 18.868 182.606 19.18H166.298V16.66H181.058L179.762 17.74C179.978 16.42 179.822 15.244 179.294 14.212C178.79 13.156 178.058 12.328 177.098 11.728C176.138 11.104 175.058 10.792 173.858 10.792C172.658 10.792 171.542 11.104 170.51 11.728C169.502 12.352 168.71 13.228 168.134 14.356C167.558 15.46 167.33 16.78 167.45 18.316C167.33 19.852 167.57 21.196 168.17 22.348C168.794 23.476 169.634 24.352 170.69 24.976C171.77 25.6 172.922 25.912 174.146 25.912C175.562 25.912 176.75 25.576 177.71 24.904C178.67 24.232 179.45 23.392 180.05 22.384L182.354 23.608C181.97 24.472 181.382 25.276 180.59 26.02C179.798 26.74 178.85 27.328 177.746 27.784C176.666 28.216 175.466 28.432 174.146 28.432ZM192.127 28L184.603 8.704H187.627L193.963 25.624H192.991L199.363 8.704H202.423L194.827 28H192.127ZM213.829 28.432C212.029 28.432 210.397 28 208.933 27.136C207.493 26.248 206.353 25.036 205.513 23.5C204.673 21.964 204.253 20.224 204.253 18.28C204.253 16.336 204.661 14.62 205.477 13.132C206.293 11.62 207.397 10.432 208.789 9.568C210.205 8.704 211.789 8.272 213.541 8.272C214.933 8.272 216.169 8.536 217.249 9.064C218.353 9.568 219.289 10.264 220.057 11.152C220.825 12.016 221.413 13 221.821 14.104C222.229 15.184 222.433 16.3 222.433 17.452C222.433 17.692 222.421 17.968 222.397 18.28C222.373 18.568 222.337 18.868 222.289 19.18H205.981V16.66H220.741L219.445 17.74C219.661 16.42 219.505 15.244 218.977 14.212C218.473 13.156 217.741 12.328 216.781 11.728C215.821 11.104 214.741 10.792 213.541 10.792C212.341 10.792 211.225 11.104 210.193 11.728C209.185 12.352 208.393 13.228 207.817 14.356C207.241 15.46 207.013 16.78 207.133 18.316C207.013 19.852 207.253 21.196 207.853 22.348C208.477 23.476 209.317 24.352 210.373 24.976C211.453 25.6 212.605 25.912 213.829 25.912C215.245 25.912 216.433 25.576 217.393 24.904C218.353 24.232 219.133 23.392 219.733 22.384L222.037 23.608C221.653 24.472 221.065 25.276 220.273 26.02C219.481 26.74 218.533 27.328 217.429 27.784C216.349 28.216 215.149 28.432 213.829 28.432ZM227.013 28V0.747999H229.713V28H227.013ZM244.096 28.432C242.272 28.432 240.616 28 239.128 27.136C237.64 26.248 236.452 25.048 235.564 23.536C234.7 22 234.268 20.26 234.268 18.316C234.268 16.396 234.7 14.68 235.564 13.168C236.428 11.656 237.592 10.468 239.056 9.604C240.544 8.716 242.224 8.272 244.096 8.272C245.968 8.272 247.636 8.704 249.1 9.568C250.588 10.432 251.752 11.62 252.592 13.132C253.456 14.644 253.888 16.372 253.888 18.316C253.888 20.284 253.444 22.036 252.556 23.572C251.668 25.084 250.48 26.272 248.992 27.136C247.528 28 245.896 28.432 244.096 28.432ZM244.096 25.732C245.392 25.732 246.556 25.408 247.588 24.76C248.644 24.112 249.472 23.224 250.072 22.096C250.696 20.968 251.008 19.708 251.008 18.316C251.008 16.924 250.696 15.676 250.072 14.572C249.472 13.468 248.644 12.592 247.588 11.944C246.556 11.296 245.392 10.972 244.096 10.972C242.8 10.972 241.624 11.296 240.568 11.944C239.536 12.592 238.708 13.468 238.084 14.572C237.46 15.676 237.148 16.924 237.148 18.316C237.148 19.708 237.46 20.968 238.084 22.096C238.708 23.224 239.536 24.112 240.568 24.76C241.624 25.408 242.8 25.732 244.096 25.732ZM258.47 35.2V8.704H261.17V13.024L260.738 12.268C261.506 11.044 262.526 10.072 263.798 9.352C265.094 8.632 266.57 8.272 268.226 8.272C270.05 8.272 271.67 8.716 273.086 9.604C274.526 10.468 275.654 11.656 276.47 13.168C277.31 14.68 277.73 16.408 277.73 18.352C277.73 20.272 277.31 22 276.47 23.536C275.654 25.048 274.526 26.248 273.086 27.136C271.67 28 270.05 28.432 268.226 28.432C266.57 28.432 265.07 28.06 263.726 27.316C262.406 26.548 261.41 25.468 260.738 24.076L261.17 23.68V35.2H258.47ZM268.082 25.732C269.378 25.732 270.53 25.408 271.538 24.76C272.57 24.112 273.374 23.236 273.95 22.132C274.55 21.004 274.85 19.744 274.85 18.352C274.85 16.936 274.55 15.676 273.95 14.572C273.374 13.468 272.57 12.592 271.538 11.944C270.53 11.296 269.378 10.972 268.082 10.972C266.786 10.972 265.61 11.296 264.554 11.944C263.522 12.592 262.694 13.48 262.07 14.608C261.47 15.712 261.17 16.96 261.17 18.352C261.17 19.744 261.47 21.004 262.07 22.132C262.694 23.236 263.522 24.112 264.554 24.76C265.61 25.408 266.786 25.732 268.082 25.732ZM291.085 28.432C289.285 28.432 287.653 28 286.189 27.136C284.749 26.248 283.609 25.036 282.769 23.5C281.929 21.964 281.509 20.224 281.509 18.28C281.509 16.336 281.917 14.62 282.733 13.132C283.549 11.62 284.653 10.432 286.045 9.568C287.461 8.704 289.045 8.272 290.797 8.272C292.189 8.272 293.425 8.536 294.505 9.064C295.609 9.568 296.545 10.264 297.313 11.152C298.081 12.016 298.669 13 299.077 14.104C299.485 15.184 299.689 16.3 299.689 17.452C299.689 17.692 299.677 17.968 299.653 18.28C299.629 18.568 299.593 18.868 299.545 19.18H283.237V16.66H297.997L296.701 17.74C296.917 16.42 296.761 15.244 296.233 14.212C295.729 13.156 294.997 12.328 294.037 11.728C293.077 11.104 291.997 10.792 290.797 10.792C289.597 10.792 288.481 11.104 287.449 11.728C286.441 12.352 285.649 13.228 285.073 14.356C284.497 15.46 284.269 16.78 284.389 18.316C284.269 19.852 284.509 21.196 285.109 22.348C285.733 23.476 286.573 24.352 287.629 24.976C288.709 25.6 289.861 25.912 291.085 25.912C292.501 25.912 293.689 25.576 294.649 24.904C295.609 24.232 296.389 23.392 296.989 22.384L299.293 23.608C298.909 24.472 298.321 25.276 297.529 26.02C296.737 26.74 295.789 27.328 294.685 27.784C293.605 28.216 292.405 28.432 291.085 28.432ZM304.27 28V8.704H306.97V11.872L306.61 11.404C307.066 10.492 307.75 9.772 308.662 9.244C309.598 8.716 310.726 8.452 312.046 8.452H313.27V11.152H311.578C310.186 11.152 309.07 11.584 308.23 12.448C307.39 13.312 306.97 14.536 306.97 16.12V28H304.27ZM322.95 28.432C321.102 28.432 319.482 27.964 318.09 27.028C316.698 26.092 315.69 24.82 315.066 23.212L317.334 22.132C317.886 23.308 318.654 24.244 319.638 24.94C320.646 25.636 321.75 25.984 322.95 25.984C324.102 25.984 325.074 25.708 325.866 25.156C326.658 24.58 327.054 23.836 327.054 22.924C327.054 22.252 326.862 21.724 326.478 21.34C326.094 20.932 325.65 20.62 325.146 20.404C324.642 20.188 324.198 20.032 323.814 19.936L321.042 19.144C319.266 18.64 317.982 17.932 317.19 17.02C316.398 16.108 316.002 15.052 316.002 13.852C316.002 12.724 316.29 11.74 316.866 10.9C317.442 10.06 318.222 9.412 319.206 8.956C320.19 8.5 321.282 8.272 322.482 8.272C324.114 8.272 325.59 8.704 326.91 9.568C328.254 10.408 329.202 11.584 329.754 13.096L327.45 14.176C326.97 13.096 326.274 12.256 325.362 11.656C324.474 11.032 323.478 10.72 322.374 10.72C321.294 10.72 320.43 10.996 319.782 11.548C319.134 12.1 318.81 12.796 318.81 13.636C318.81 14.284 318.978 14.8 319.314 15.184C319.65 15.568 320.034 15.856 320.466 16.048C320.922 16.24 321.318 16.384 321.654 16.48L324.858 17.416C326.418 17.872 327.63 18.58 328.494 19.54C329.382 20.5 329.826 21.628 329.826 22.924C329.826 23.98 329.526 24.928 328.926 25.768C328.35 26.608 327.546 27.268 326.514 27.748C325.482 28.204 324.294 28.432 322.95 28.432Z" fill="white"/>
</svg>
