<svg width="20" height="21" viewBox="0 0 20 21" fill="none" xmlns="http://www.w3.org/2000/svg">
<path d="M9.56884 4.78115C9.56884 4.94691 9.63469 5.10588 9.7519 5.22309C9.86911 5.3403 10.0281 5.40615 10.1938 5.40615H14.2626L3.85634 15.8124C3.75395 15.932 3.70045 16.0858 3.70652 16.2431C3.7126 16.4004 3.7778 16.5496 3.88911 16.6609C4.00042 16.7722 4.14963 16.8374 4.30693 16.8435C4.46423 16.8495 4.61803 16.796 4.73759 16.6937L15.1313 6.2999V10.3374C15.1313 10.5032 15.1972 10.6621 15.3144 10.7793C15.4316 10.8966 15.5906 10.9624 15.7563 10.9624C15.9221 10.9624 16.0811 10.8966 16.1983 10.7793C16.3155 10.6621 16.3813 10.5032 16.3813 10.3374V4.7124C16.3813 4.56322 16.3221 4.42014 16.2166 4.31465C16.1111 4.20917 15.968 4.1499 15.8188 4.1499H10.1938C10.1112 4.1499 10.0294 4.16627 9.95321 4.19807C9.87697 4.22987 9.80779 4.27646 9.74967 4.33516C9.69156 4.39386 9.64565 4.4635 9.61461 4.54006C9.58357 4.61661 9.56801 4.69855 9.56884 4.78115Z" fill="black"/>
</svg>
