<svg width="16" height="16" viewBox="0 0 16 16" fill="none" xmlns="http://www.w3.org/2000/svg">
<path d="M7.48249 1.13738C7.48249 1.3363 7.5615 1.52706 7.70216 1.66771C7.84281 1.80837 8.03357 1.88738 8.23249 1.88738H13.115L0.627486 14.3749C0.504617 14.5184 0.440412 14.7029 0.447703 14.8917C0.454994 15.0804 0.533243 15.2595 0.666814 15.3931C0.800385 15.5266 0.979439 15.6049 1.1682 15.6122C1.35695 15.6195 1.54151 15.5553 1.68499 15.4324L14.1575 2.95988V7.80488C14.1575 8.00379 14.2365 8.19456 14.3772 8.33521C14.5178 8.47587 14.7086 8.55488 14.9075 8.55488C15.1064 8.55488 15.2972 8.47587 15.4378 8.33521C15.5785 8.19456 15.6575 8.00379 15.6575 7.80488V1.05488C15.6575 0.875861 15.5864 0.704173 15.4598 0.577586C15.3332 0.450999 15.1615 0.379883 14.9825 0.379883H8.23249C8.13336 0.379878 8.03522 0.399523 7.94373 0.437682C7.85224 0.475841 7.76923 0.531757 7.69949 0.602198C7.62974 0.672638 7.57466 0.756205 7.53741 0.848066C7.50016 0.939928 7.4815 1.03826 7.48249 1.13738Z" fill="black"/>
</svg>
